<svg xmlns="http://www.w3.org/2000/svg" xmlns:xlink="http://www.w3.org/1999/xlink" width="1920" zoomAndPan="magnify" viewBox="0 0 1440 809.999993" height="1080" preserveAspectRatio="xMidYMid meet" version="1.0"><rect x="-144" width="1728" fill="#ffffff" y="-80.999999" height="971.999992" fill-opacity="1"/><rect x="-144" width="1728" fill="#f2aa75" y="-80.999999" height="971.999992" fill-opacity="1"/><path fill="#c97d44" d="M 569.300781 520.121094 C 569.300781 520.121094 565.980469 544.199219 580.636719 589.867188 C 595.296875 635.53125 627.929688 680.644531 647.5625 697.523438 C 647.5625 697.523438 666.371094 713.023438 671.625 716.066406 C 676.878906 719.113281 701.765625 727.136719 720.574219 726.863281 C 739.378906 726.585938 757.078125 723.539062 767.308594 718.007812 C 777.542969 712.472656 779.480469 711.640625 793.859375 698.910156 C 808.238281 686.179688 836.03125 650.335938 847.925781 618.785156 C 859.816406 587.238281 872.539062 546.277344 867.007812 518.046875 C 867.007812 518.046875 859.816406 532.164062 836.585938 541.570312 C 813.359375 550.980469 790.125 559.839844 742.28125 563.4375 C 694.4375 567.035156 653.507812 561.773438 613.960938 548.769531 C 613.960938 548.769531 590.523438 540.671875 577.527344 528.632812 L 569.300781 520.121094 " fill-opacity="1" fill-rule="evenodd"/><path fill="#eba26b" d="M 846.039062 536.769531 C 816.039062 554.835938 775.371094 561.066406 740.8125 563.542969 C 735.300781 640.246094 779.886719 700.34375 809.6875 657.160156 C 839.488281 613.976562 843.894531 560.921875 846.039062 536.769531 " fill-opacity="1" fill-rule="evenodd"/><path fill="#a5582f" d="M 569.300781 520.121094 C 569.300781 520.121094 565.980469 544.199219 580.636719 589.867188 C 595.296875 635.53125 627.929688 680.644531 647.5625 697.523438 C 647.5625 697.523438 666.371094 713.023438 671.625 716.066406 C 676.878906 719.113281 701.769531 727.136719 720.574219 726.859375 C 739.378906 726.585938 757.078125 723.539062 767.3125 718.007812 C 777.027344 712.75 779.265625 711.734375 791.78125 700.742188 C 704.621094 731.636719 661.644531 648.117188 662.332031 560.566406 C 645.753906 557.914062 629.746094 553.957031 613.960938 548.769531 C 613.960938 548.769531 590.523438 540.671875 577.527344 528.632812 L 569.300781 520.121094 " fill-opacity="1" fill-rule="evenodd"/><path fill="#c97d44" d="M 862.515625 574.574219 C 862.515625 574.574219 868.324219 551.882812 868.597656 533.199219 C 868.597656 533.199219 878.277344 522.265625 895.84375 522.679688 C 913.398438 523.097656 934.28125 534.722656 938.84375 560.183594 C 938.84375 560.183594 942.820312 582.289062 928.578125 600.695312 C 914.332031 619.097656 884.746094 628.644531 884.746094 628.644531 C 884.746094 628.644531 864.96875 635.148438 859.4375 639.578125 C 859.4375 639.578125 857.050781 643.417969 855.046875 650.40625 C 853.042969 657.394531 847.859375 664.660156 840.738281 662.792969 C 833.613281 660.925781 832.371094 653.589844 833.132812 649.367188 L 845.644531 624.667969 C 845.644531 624.667969 853.941406 616.640625 865.972656 610.277344 C 878.003906 603.910156 889.753906 599.757812 896.671875 592.980469 C 903.582031 586.199219 910.429688 572.015625 900.335938 558.039062 C 900.335938 558.039062 897.015625 552.226562 887.613281 552.640625 C 887.613281 552.640625 883.742188 555.824219 882.359375 563.574219 C 880.972656 571.324219 880.285156 581.148438 871.574219 581.148438 C 862.859375 581.148438 862.515625 574.574219 862.515625 574.574219 " fill-opacity="1" fill-rule="evenodd"/><path fill="#a5582f" d="M 862.511719 574.574219 C 862.511719 574.574219 868.324219 551.878906 868.601562 533.199219 C 868.601562 533.199219 874.496094 526.535156 885.441406 523.8125 C 884.640625 525.972656 883.105469 531.050781 883.945312 536.285156 C 885.046875 543.203125 886.429688 544.585938 897.21875 543.203125 C 908 541.820312 919.339844 553.996094 918.511719 569.21875 C 917.683594 584.441406 902.195312 601.597656 884.21875 609.625 C 866.246094 617.652344 853.417969 627.648438 850.652344 633.597656 C 847.886719 639.550781 842.457031 659.304688 850.546875 646.988281 C 850.546875 646.988281 852.691406 643.25 857.808594 640.828125 C 857.808594 640.828125 858.125 640.886719 858.644531 641.027344 C 857.777344 642.742188 856.335938 645.925781 855.046875 650.40625 C 853.042969 657.394531 847.859375 664.660156 840.734375 662.792969 C 833.617188 660.925781 832.371094 653.589844 833.132812 649.367188 L 845.644531 624.667969 C 845.644531 624.667969 853.941406 616.640625 865.972656 610.277344 C 878 603.910156 889.753906 599.757812 896.667969 592.980469 C 903.582031 586.199219 910.429688 572.015625 900.332031 558.039062 C 900.332031 558.039062 897.015625 552.226562 887.613281 552.640625 C 887.613281 552.640625 883.738281 555.824219 882.359375 563.570312 C 880.976562 571.324219 880.285156 581.148438 871.570312 581.148438 C 862.859375 581.148438 862.511719 574.574219 862.511719 574.574219 " fill-opacity="1" fill-rule="evenodd"/><path fill="#fef1dc" d="M 570.023438 519.671875 C 570.023438 519.671875 573.480469 527.078125 586.410156 534.964844 C 599.339844 542.851562 626.648438 556.273438 667.023438 561.671875 C 667.023438 561.671875 711.203125 566.722656 750.476562 563.402344 C 750.476562 563.402344 806.0625 557.589844 836.761719 541.675781 C 836.761719 541.675781 862.203125 529.5 866.625 518.015625 C 866.625 518.015625 863.238281 496.21875 805.578125 478.089844 C 805.578125 478.089844 761.609375 465.5 702.285156 467.019531 C 702.285156 467.019531 665.433594 467.640625 623.261719 483.277344 C 581.085938 498.917969 568.363281 515.246094 570.023438 519.671875 " fill-opacity="1" fill-rule="evenodd"/><path fill="#a5582f" d="M 587.835938 743.40625 C 587.835938 743.40625 610.925781 761.949219 636.921875 769.976562 C 662.917969 778 698.316406 783.535156 726.941406 782.429688 C 755.566406 781.324219 792.140625 777.105469 814.125 765.757812 C 836.109375 754.40625 847.726562 748.871094 855.195312 738.355469 C 855.195312 738.355469 788.265625 753.300781 751.761719 757.730469 C 715.257812 762.15625 651.375 763.402344 587.835938 743.40625 " fill-opacity="1" fill-rule="evenodd"/><path fill="#d7b799" d="M 621.566406 536.796875 C 621.566406 536.796875 604.695312 529.324219 599.304688 522.269531 C 593.910156 515.210938 594.742188 508.152344 605.25 500.265625 C 615.757812 492.378906 641.476562 485.460938 646.316406 483.9375 C 651.15625 482.414062 675.042969 477.121094 687.765625 476.015625 L 701.164062 474.507812 C 701.164062 474.507812 705.414062 473.992188 708.558594 473.886719 C 711.707031 473.785156 747.035156 474.40625 776.558594 480.425781 C 806.078125 486.445312 812.75 489.523438 818.90625 492.292969 C 825.058594 495.058594 837.847656 501.839844 838.675781 509.796875 C 839.507812 517.753906 833.183594 526.367188 815.621094 535.640625 C 815.621094 535.640625 822.949219 521.734375 802.484375 515.988281 C 782.019531 510.246094 757.371094 509.105469 739.121094 508.550781 C 739.121094 508.550781 708.457031 507.828125 690.066406 510.175781 C 690.066406 510.175781 658.8125 513.015625 634.894531 522.839844 C 634.894531 522.839844 629.5 524.777344 625.210938 529.480469 C 620.925781 534.1875 621.566406 536.796875 621.566406 536.796875 " fill-opacity="1" fill-rule="evenodd"/><path fill="#fef1dc" d="M 585.691406 652.195312 C 593.035156 650.207031 600.039062 649.113281 607.261719 647.429688 C 616.023438 664.003906 628.308594 675.632812 638.875 690.042969 C 631.085938 692.609375 615.570312 697.410156 617.515625 708.796875 C 620.40625 725.671875 666.554688 732.261719 679.421875 733.792969 C 704.808594 736.8125 732.535156 737.085938 757.992188 734.78125 C 775.648438 733.183594 797.652344 730.539062 813.882812 724.101562 C 820.277344 721.5625 829.148438 716.4375 832.230469 710.011719 C 834.667969 704.929688 830.546875 700.316406 826.902344 697.269531 C 822.382812 693.492188 815.234375 691.265625 809.417969 690.824219 C 805.699219 690.542969 802.367188 690.558594 806.636719 685.75 C 809.1875 682.875 811.625 680.070312 813.925781 677.257812 C 820.253906 669.5 826.410156 657.605469 832.246094 651.308594 C 834.304688 655.320312 834.753906 660.824219 839.738281 662.667969 C 841.742188 663.40625 844.101562 663.34375 846.308594 662.378906 C 855.058594 658.550781 854.605469 648.34375 857.324219 644.621094 L 858.289062 644.726562 C 866.121094 645.820312 925.828125 662.535156 925.75 690.40625 C 925.710938 705.546875 905.882812 717.234375 894.527344 722.804688 C 871.988281 733.859375 842.046875 741.925781 817.8125 746.75 C 798.585938 750.832031 776.261719 755 756.78125 757.3125 C 738.007812 759.542969 721.21875 760.5625 704.285156 760.375 C 687.367188 760.1875 670.355469 758.792969 651.121094 756.199219 C 622.617188 752.355469 588.742188 744.429688 562.121094 733.890625 C 548.261719 728.402344 519.5 715.257812 519.90625 697.117188 C 520.453125 672.773438 567.230469 657.191406 585.691406 652.195312 " fill-opacity="1" fill-rule="evenodd"/><path fill="#d7b799" d="M 824.859375 697.15625 C 829.269531 699.773438 833.335938 704.710938 832.117188 710.15625 C 831.070312 714.816406 826.589844 718.292969 822.617188 720.484375 C 813.5 725.511719 798.644531 728.980469 792.421875 729.605469 C 798.769531 726.414062 804.464844 722.625 803.132812 717.605469 C 802.007812 713.367188 797.515625 710.441406 790.328125 708.492188 C 789.398438 708.273438 787.347656 707.738281 786.289062 707.675781 C 787.320312 705.355469 791.703125 701.949219 795.265625 698.527344 C 797.429688 696.453125 799.375 694.335938 801.480469 692.140625 C 808.097656 691.519531 818.738281 693.523438 824.859375 697.15625 Z M 662.226562 709.273438 C 655.867188 710.164062 654.351562 710.28125 648.335938 713.40625 C 645.789062 714.726562 643.820312 716.617188 643.164062 718.652344 C 642.582031 720.46875 643.308594 722.273438 646.257812 727.105469 C 643.183594 726.425781 641.222656 726.0625 638.144531 724.804688 C 631.777344 722.203125 621.628906 717.722656 619.097656 710.785156 C 614.828125 699.105469 630.851562 692.253906 639.359375 689.964844 C 646.257812 694.589844 654.742188 703.488281 662.226562 709.273438 " fill-opacity="1" fill-rule="evenodd"/><path fill="#fef1dc" d="M 665.917969 712.183594 C 666.863281 712.902344 667.683594 713.53125 668.039062 713.769531 C 672.007812 716.433594 677.160156 718.59375 682.542969 720.375 C 697.171875 725.21875 712.679688 727.902344 728.109375 726.960938 C 734.441406 726.574219 741.066406 726.117188 747.449219 725.066406 C 753.785156 724.027344 759.90625 722.402344 765.320312 719.683594 C 770.925781 716.871094 778.972656 712.5625 783.609375 708.246094 C 784.628906 707.292969 785.199219 706.765625 786.199219 706.566406 C 787.320312 706.347656 788.136719 706.441406 790.597656 707.28125 C 791.328125 707.53125 792.472656 708.105469 793.5 708.441406 C 797.300781 709.683594 800.582031 711.894531 802.335938 714.535156 C 805.472656 719.257812 803.375 723.015625 798.984375 725.9375 C 792.183594 730.464844 786.367188 731.738281 778.640625 732.542969 C 771.464844 733.292969 764.660156 733.804688 757.417969 734.308594 C 744.433594 735.21875 731.386719 735.761719 718.304688 735.675781 C 705.214844 735.589844 692.152344 734.875 679.195312 733.265625 C 674.195312 732.648438 669.164062 731.910156 664.527344 731.113281 C 661.425781 730.582031 650.710938 728.921875 647.679688 726.742188 C 638.089844 719.84375 644.109375 714.148438 651.929688 710.835938 C 655.0625 709.507812 658.945312 709.570312 660.828125 709.570312 C 661.726562 709.570312 663.804688 710.570312 665.917969 712.183594 " fill-opacity="1" fill-rule="evenodd"/><path fill="#854129" d="M 623.660156 537.539062 C 623.660156 537.539062 647.308594 550.40625 693.90625 553.449219 C 693.90625 553.449219 726.675781 556.632812 742.300781 555.113281 C 757.929688 553.589844 783.511719 550.546875 798.71875 543.210938 C 813.929688 535.878906 820.152344 531.308594 816.417969 525.082031 C 812.6875 518.855469 794.710938 511.109375 747.972656 508.617188 C 747.972656 508.617188 726.675781 508.0625 710.359375 508.753906 C 694.042969 509.445312 674.132812 511.523438 663.484375 514.566406 C 652.839844 517.613281 621.035156 527.574219 623.660156 537.539062 " fill-opacity="1" fill-rule="evenodd"/><path fill="#eba26b" d="M 899.109375 523.707031 C 896.328125 523.960938 893.988281 525.140625 893.171875 528.085938 C 890.683594 537.082031 902.4375 532.375 913.777344 539.847656 C 925.113281 547.320312 927.324219 558.945312 927.324219 565.585938 C 927.324219 572.226562 926.632812 583.4375 922.902344 592.433594 C 919.167969 601.425781 912.390625 607.929688 909.351562 611.253906 C 906.304688 614.574219 885.84375 627.027344 877.960938 630.347656 C 877.960938 630.347656 900.914062 623.429688 909.488281 617.339844 C 918.0625 611.253906 932.441406 605.300781 938.800781 576.65625 C 938.800781 576.65625 942.953125 559.222656 933.269531 543.308594 C 927.050781 533.082031 912.1875 522.507812 899.109375 523.707031 " fill-opacity="1" fill-rule="evenodd"/><path fill="#eba26b" d="M 841.042969 742.019531 C 841.042969 742.019531 803.15625 767.480469 781.304688 776.0625 C 781.304688 776.0625 806.75 771.773438 823.617188 760.839844 C 840.488281 749.910156 847.261719 748.25 854.871094 738.285156 L 846.988281 740.496094 L 841.042969 742.019531 " fill-opacity="1" fill-rule="evenodd"/><path fill="#d7b799" d="M 764.710938 720.984375 C 753.363281 737.15625 656.550781 729.121094 643.167969 718.632812 L 620.214844 700.644531 C 620.214844 700.644531 537.980469 689.296875 523.972656 685.699219 C 523.972656 685.699219 534.480469 669.925781 566.007812 658.023438 C 566.007812 658.023438 574.582031 653.597656 607.492188 646.675781 C 607.492188 646.675781 623.878906 673.453125 640.746094 690.195312 C 657.617188 706.941406 668.402344 714.136719 668.402344 714.136719 C 668.402344 714.136719 689.144531 724.097656 705.046875 725.761719 C 720.949219 727.421875 747.289062 725.277344 764.710938 720.984375 " fill-opacity="1" fill-rule="evenodd"/><path fill="#ad896f" d="M 643.167969 718.636719 C 643.167969 718.632812 620.464844 700.839844 620.464844 700.839844 C 624.53125 695.101562 633.640625 691.503906 639.359375 689.964844 C 641.03125 691.085938 642.796875 692.457031 644.617188 693.976562 C 651.921875 700.988281 657.859375 706.023438 661.976562 709.308594 C 655.828125 710.167969 654.273438 710.320312 648.335938 713.40625 C 645.796875 714.726562 643.828125 716.605469 643.167969 718.636719 " fill-opacity="1" fill-rule="evenodd"/><path fill="#0d0d0d" d="M 720.683594 562.265625 C 728.457031 562.089844 736.085938 561.40625 743.707031 561.214844 C 748.398438 561.09375 760.730469 559.644531 765.535156 558.972656 C 791.660156 555.300781 816.625 549.605469 840.175781 537.828125 C 848.007812 533.910156 855.292969 529.28125 861.515625 523.050781 C 865.542969 519.027344 865.40625 518.605469 864.074219 515.914062 C 861.214844 510.128906 858.007812 506.777344 853.121094 502.785156 C 846.878906 497.6875 837.4375 492.972656 830.320312 489.464844 C 818.207031 483.492188 799.921875 478.085938 786.910156 475.496094 C 776.621094 473.449219 766.480469 472.285156 755.730469 471.152344 C 732.371094 468.691406 712.828125 468.203125 689.238281 469.523438 C 673.765625 471.277344 663.613281 473.351562 649.246094 477.160156 C 632.546875 481.585938 620.945312 485.535156 605.464844 492.785156 C 597.605469 496.71875 582.246094 505.015625 576.3125 511.007812 C 573.292969 514.054688 571.800781 515.367188 571.800781 519.582031 C 571.800781 522.371094 580.605469 529.34375 582.859375 531.03125 C 586.914062 534.066406 592.332031 536.90625 596.917969 539.222656 L 604.679688 542.714844 C 619.515625 549.320312 640.730469 555.175781 656.800781 557.851562 C 680.410156 561.777344 696.375 562.265625 720.683594 562.265625 Z M 569.96875 522.722656 C 571.078125 535.988281 571.953125 548.25 574.828125 561.328125 C 576.121094 567.203125 577.449219 572.941406 579.289062 578.597656 C 582.992188 589.980469 586.140625 599.410156 590.675781 610.40625 C 591.714844 612.929688 592.917969 615.546875 594.035156 618.042969 C 597.347656 625.421875 601.078125 632.527344 604.941406 639.601562 C 606.25 642.003906 607.523438 644.070312 608.90625 646.367188 C 612.910156 653.015625 617.375 659.566406 622 665.734375 C 623.597656 667.863281 625.117188 669.847656 626.808594 671.921875 L 633.066406 679.273438 C 635.820312 682.714844 639.007812 685.949219 642.121094 689.066406 C 644.824219 691.769531 647.539062 694.472656 650.480469 696.933594 L 653.238281 699.410156 C 655.683594 701.585938 658.097656 703.835938 660.71875 705.800781 C 662.234375 706.9375 664.628906 707.359375 666.417969 707.953125 C 674.742188 710.726562 683.644531 712.863281 692.457031 714.367188 C 703.796875 716.296875 715.40625 717.324219 727.222656 716.753906 C 728.632812 716.6875 730.527344 716.4375 731.9375 716.371094 C 747.398438 715.636719 767.996094 711.589844 782.0625 705.648438 L 782.835938 705.378906 C 785.972656 704.113281 798.710938 691.632812 800.859375 688.847656 L 810.921875 677.445312 C 814.101562 673.414062 817.117188 669.351562 820.1875 665.246094 L 825.648438 657.355469 C 828.597656 653.109375 831.640625 647.632812 834.3125 642.964844 C 838.164062 636.238281 842.78125 627.097656 845.195312 620.621094 L 848.292969 612.984375 C 850.78125 606.574219 853.207031 600.191406 855.339844 593.59375 C 857.257812 587.214844 858.875 580.921875 860.695312 574.597656 C 861.761719 570.886719 862.625 566.988281 863.332031 563.132812 C 865.601562 550.820312 867.960938 533.925781 866.164062 521.734375 C 861.011719 529.109375 851.488281 536.511719 842.351562 541.054688 L 834.070312 545.070312 C 825.335938 549.476562 811.324219 553.746094 802.320312 555.980469 C 786.960938 559.789062 772.054688 562.355469 756.339844 564.527344 C 748.546875 565.597656 732.746094 566.476562 725.316406 566.46875 C 708.90625 566.449219 697.628906 565.746094 681.164062 564.628906 C 657.65625 563.039062 626.636719 555.988281 604.957031 546.628906 C 594.394531 541.785156 584.027344 537.171875 575.660156 528.8125 C 573.851562 527.003906 572.351562 525.199219 569.96875 522.722656 Z M 852.820312 623.011719 L 849.527344 626.003906 C 848.449219 626.835938 847.453125 627.996094 846.476562 628.96875 C 846.023438 629.421875 845.234375 630.109375 844.9375 630.574219 C 844.566406 631.144531 839.375 642.023438 837.691406 644.800781 C 836.902344 646.113281 836.289062 647.316406 835.5 648.625 C 834.242188 650.707031 833.652344 651.140625 834.121094 652.867188 C 836.746094 662.589844 845.902344 666.699219 852.996094 652.519531 C 853.714844 651.082031 854.160156 649.761719 854.6875 648.183594 C 855.140625 646.808594 856.027344 644.765625 856.324219 643.496094 C 854.414062 644.582031 853.089844 646.050781 851.410156 647.71875 C 850.328125 648.945312 849.285156 650.175781 848.183594 651.367188 C 847.601562 651.992188 847.617188 652.140625 847.0625 652.34375 C 848.089844 650.398438 848.546875 649.078125 849.785156 647.210938 L 851.886719 644.074219 C 854.324219 640.855469 854.988281 640.148438 858.746094 638.109375 C 863.214844 635.6875 867.882812 633.007812 872.738281 631.425781 L 894.949219 622.753906 C 898.359375 621.050781 901.667969 619.707031 905.136719 617.980469 C 911.519531 614.667969 918.316406 609.84375 923.144531 604.621094 L 925.523438 601.769531 C 928.429688 598.164062 928.410156 598.105469 930.804688 593.960938 C 934.972656 586.742188 935.089844 585.164062 936.910156 577.292969 C 939.394531 566.597656 937.699219 556.742188 932.972656 547.25 C 932.296875 545.894531 931.917969 545.3125 931.167969 544.085938 C 926.003906 535.617188 917.273438 529.429688 907.601562 526.554688 C 898.910156 523.976562 889.570312 523.542969 880.84375 527.054688 C 878.355469 528.054688 871.847656 532.496094 870.214844 534.308594 C 870.253906 540.425781 868.972656 550.324219 868.496094 555.699219 L 866.949219 564.359375 L 872.03125 558.1875 C 874.960938 554.457031 878.703125 549.691406 882.054688 546.222656 L 887.359375 540.53125 C 887.121094 541.414062 887.207031 540.976562 886.695312 541.695312 L 881.390625 549.222656 C 878.253906 553.921875 878.34375 553.558594 875.246094 557.738281 C 874.15625 559.207031 873.167969 560.402344 872.035156 561.855469 C 870.960938 563.230469 865.988281 568.703125 865.648438 570.128906 L 864.332031 575.878906 C 865.679688 577.894531 868.308594 579.484375 871.925781 579.292969 C 873.726562 579.199219 874.804688 578.523438 875.855469 577.722656 C 876.992188 576.851562 877.550781 575.921875 878.207031 574.582031 C 880.894531 569.105469 878.421875 551.382812 894.960938 547.875 C 898.886719 547.042969 901.308594 547.902344 904.019531 549.253906 C 905.328125 549.90625 909.453125 552.878906 910.121094 553.882812 C 909.078125 553.609375 907.15625 551.761719 904.367188 551.527344 C 905.300781 552.339844 907.839844 553.996094 908.289062 554.671875 C 907.449219 554.445312 906.320312 553.410156 904.105469 553.363281 C 904.417969 553.789062 905.566406 554.691406 906.128906 555.261719 C 906.863281 556.007812 907.539062 556.296875 908.027344 557.027344 C 906.933594 556.738281 907.140625 556.164062 903.582031 555.195312 C 902.074219 554.785156 900.511719 553.921875 898.871094 553.882812 C 899.683594 554.996094 900.832031 555.132812 903.21875 558.699219 C 904.457031 560.554688 905.253906 562.535156 905.972656 564.847656 C 907.34375 569.265625 907.59375 575.585938 906.355469 580.492188 C 901.855469 598.40625 880.480469 603.636719 866.273438 612.125 C 859.296875 616.296875 858.96875 616.304688 852.632812 620.992188 C 849.960938 622.972656 846.921875 625.222656 846.277344 627.988281 C 847.285156 627.3125 848.402344 626.089844 849.414062 625.367188 C 850.082031 624.890625 850.382812 624.714844 851.070312 624.140625 C 851.617188 623.683594 852.140625 623.195312 852.820312 623.011719 Z M 849.941406 619.347656 L 853.414062 616.539062 C 856.707031 614.085938 861.390625 611.261719 864.945312 609.484375 C 870.875 606.523438 876.792969 603.109375 883.167969 599.96875 C 883.894531 599.609375 884.546875 599.402344 885.359375 599.015625 C 890.703125 596.472656 898.898438 589.410156 901.488281 584.261719 C 905.050781 577.171875 904.539062 567.132812 900.429688 560.441406 C 898.820312 557.816406 895.222656 554.671875 891.019531 554.671875 C 888.761719 554.671875 888.664062 554.449219 887.644531 555.742188 C 887.148438 556.363281 886.902344 556.652344 886.410156 557.390625 C 881.863281 564.226562 884.574219 572.46875 879.289062 579.066406 C 877.957031 580.726562 874.59375 582.6875 871.65625 582.6875 C 865.59375 582.6875 864.609375 579.734375 863.546875 579.023438 C 860.617188 591.628906 855.261719 604.945312 850.839844 617.101562 C 850.480469 617.953125 850.121094 618.574219 849.941406 619.347656 Z M 832.273438 653.867188 C 829.230469 657.945312 825.847656 663.882812 822.808594 668.332031 C 818 675.445312 812.804688 681.480469 807.136719 687.847656 C 806.125 689.152344 806.539062 688.988281 808.320312 689.007812 C 812.726562 689.058594 819.382812 690.933594 823.421875 692.839844 C 826.449219 694.265625 830.171875 697.5 832.078125 700.066406 C 832.65625 700.847656 833.160156 701.558594 833.632812 702.441406 C 836.886719 708.492188 832.710938 713.601562 828.148438 717.464844 C 825.289062 719.886719 821.855469 721.90625 818.433594 723.457031 C 815.777344 724.65625 812.761719 725.863281 810.003906 726.800781 C 803.167969 729.125 795.476562 731.488281 788.378906 732.65625 C 778.035156 734.359375 768.691406 735.585938 758.152344 736.539062 C 733.582031 738.761719 703.546875 738.445312 679.214844 735.550781 C 665.859375 733.960938 655.597656 731.785156 642.679688 728.308594 C 635.957031 726.5 627.777344 723.023438 622.265625 718.621094 C 615.183594 712.96875 613.300781 706.148438 618.894531 698.949219 C 622.136719 694.777344 626.792969 692 631.753906 690.339844 C 634.070312 689.566406 635.183594 689.394531 636.007812 689.121094 C 635.738281 688.753906 635.363281 688.300781 634.941406 687.886719 L 626.480469 678.21875 L 611.308594 657.316406 C 609.542969 654.816406 607.773438 652.171875 606.339844 649.460938 C 604.660156 649.851562 603.394531 650 601.476562 650.355469 C 591.363281 652.226562 580.855469 655.269531 571.042969 658.390625 C 563.953125 660.648438 554.757812 664.574219 548.144531 668.125 L 544.125 670.492188 C 536.800781 674.796875 531.34375 679.042969 526.042969 685.847656 C 523.5625 689.023438 521.773438 692.609375 521.671875 697.152344 C 521.511719 704.226562 526.886719 711.324219 531.570312 714.933594 C 536.855469 719.003906 540.65625 721.375 546.597656 724.695312 C 556.949219 730.484375 568.367188 734.511719 579.617188 738.261719 C 585.1875 740.117188 591.058594 741.597656 596.625 743.234375 C 603.945312 745.390625 615.84375 747.90625 623.410156 749.421875 C 629.644531 750.671875 635.515625 751.925781 641.847656 752.96875 C 644.839844 753.460938 648.261719 754.03125 651.359375 754.449219 C 689.703125 759.621094 719.117188 760.007812 756.574219 755.554688 C 761.714844 754.945312 766.792969 753.824219 771.921875 753.109375 C 777.167969 752.375 782.191406 751.246094 787.417969 750.550781 C 795.144531 749.523438 802.484375 747.824219 810.132812 746.570312 L 817.476562 745.015625 C 827.269531 743.066406 836.808594 740.59375 846.484375 738.175781 L 860.238281 734.132812 C 864.875 732.597656 869.089844 731.21875 873.71875 729.554688 C 886.398438 724.992188 901.695312 718.480469 912.035156 709.769531 C 915.113281 707.171875 918.617188 704.125 920.703125 700.632812 C 924.976562 693.476562 925.265625 687.324219 920.484375 680.199219 C 915.046875 672.097656 906.054688 666.09375 897.644531 661.421875 C 887.800781 655.949219 874.285156 650.625 862.867188 647.785156 C 861.574219 647.464844 858.574219 646.820312 857.527344 646.320312 C 855.800781 649.921875 855.605469 653.785156 853.167969 658.1875 C 849.808594 664.25 843.714844 666.019531 839.132812 664.328125 C 835.011719 662.804688 832.273438 658.160156 832.273438 653.867188 Z M 788.320312 706.097656 C 789.863281 706.683594 792.078125 706.945312 794.0625 707.738281 C 795.789062 708.429688 797.40625 709.300781 798.808594 710.316406 C 803.421875 713.65625 807.289062 719.191406 802.257812 724.289062 C 801.5 725.0625 801.191406 725.335938 800.304688 725.996094 C 799.566406 726.550781 797.34375 727.660156 797.144531 727.835938 C 798.859375 727.835938 802.015625 726.613281 803.417969 726.234375 C 807.921875 725.011719 813.355469 723.472656 817.484375 721.195312 C 818.910156 720.414062 820.269531 719.761719 821.765625 718.933594 C 829.332031 714.757812 834.480469 708.160156 826.726562 700.710938 C 825.066406 699.121094 822.457031 697.746094 820.152344 696.8125 C 817.871094 695.890625 814.445312 694.996094 811.707031 694.53125 C 809.601562 694.175781 803.386719 693.21875 801.953125 693.351562 C 798.71875 696.722656 794.300781 701.132812 790.722656 704.117188 C 790.226562 704.574219 789.234375 705.5 788.320312 706.097656 Z M 792.429688 708.675781 C 791.566406 708.074219 790.0625 707.582031 789.011719 707.148438 C 787.785156 706.636719 787.496094 706.675781 786.882812 707.589844 C 787.820312 707.613281 788.609375 707.847656 789.484375 707.992188 C 789.894531 708.0625 791.730469 708.554688 792.429688 708.675781 Z M 644.078125 724.847656 C 642.957031 723.175781 641.058594 720.9375 641.96875 718.113281 C 643.746094 712.585938 652.957031 709.160156 659.191406 709.160156 L 653.726562 704.933594 C 648.648438 701.007812 643.828125 695.085938 639.046875 691.882812 C 632.089844 693.753906 628.789062 695.410156 625.332031 698.394531 C 621.875 701.386719 619.0625 705.558594 620.753906 710.183594 C 622.300781 714.414062 626.804688 717.226562 630.492188 719.296875 C 633.117188 720.769531 641.910156 724.800781 644.078125 724.847656 Z M 670.402344 713.035156 C 671.6875 714.152344 675.007812 715.488281 676.757812 716.199219 C 691.203125 722.0625 705.804688 724.613281 722.253906 724.613281 C 726.355469 724.613281 731.117188 724.753906 734.964844 724.273438 C 739.757812 723.671875 745.539062 722.675781 750.230469 721.710938 C 754.339844 720.867188 768.488281 716.804688 774.640625 712.5 C 770.683594 713.535156 764.792969 715.507812 760.78125 716.300781 C 756.832031 717.078125 753.269531 718.386719 749.050781 719.222656 C 743.3125 720.359375 735.699219 721.457031 729.589844 721.636719 C 724.300781 721.796875 717.042969 721.722656 711.707031 721.023438 C 701.335938 719.664062 693.640625 718.550781 683.289062 716.46875 Z M 660.238281 709.949219 C 656.886719 709.949219 648.1875 713.539062 645.5 716.191406 C 642.496094 719.164062 643.382812 722.460938 647.742188 725.597656 C 648.824219 726.375 651.453125 726.929688 653.070312 727.335938 C 659.753906 729 669.585938 730.652344 679.363281 731.863281 C 705.230469 735.070312 731.371094 734.710938 757.320312 732.898438 L 772.152344 731.863281 C 783.296875 730.390625 789.722656 730.914062 797.925781 725.453125 C 806.589844 719.683594 801.183594 712.441406 793.058594 709.785156 C 784.179688 706.878906 787.8125 707.164062 781.203125 712.121094 C 779.382812 713.484375 768.609375 719.609375 765.949219 720.945312 C 754.824219 726.53125 740.933594 727.59375 728.191406 728.371094 C 716.828125 729.066406 709.160156 728.023438 698.242188 726.117188 C 688.3125 723.785156 675.453125 720.445312 667.25 714.945312 C 666.003906 714.105469 660.871094 709.949219 660.238281 709.949219 Z M 595.429688 747.164062 C 596.285156 748.335938 607.488281 754.789062 609.476562 755.773438 C 637.648438 769.757812 653.4375 774.222656 683.902344 778.441406 C 685.507812 778.660156 686.757812 778.691406 688.394531 778.921875 C 691.21875 779.316406 694.738281 779.820312 697.65625 779.859375 L 717.015625 780.910156 C 723.703125 780.878906 730.726562 781.355469 737.390625 780.609375 C 762.671875 777.769531 780.539062 776.550781 805.683594 767.253906 C 807.960938 766.410156 810.628906 765.367188 812.957031 764.324219 L 826.746094 757.695312 C 831.292969 755.386719 849.152344 743.855469 850.988281 741.109375 C 844.574219 742.84375 838.417969 744.375 831.953125 745.886719 C 824.425781 747.503906 816.136719 748.800781 808.785156 750.589844 C 814.617188 750.519531 818.925781 749.964844 824.710938 749.109375 C 827.121094 748.757812 831.179688 748.238281 833.464844 747.664062 C 834.34375 747.441406 835.023438 747.15625 836.074219 747.128906 C 827.738281 750.230469 821.988281 752.441406 813.007812 755 C 814.394531 755 828.992188 751.816406 831.011719 751.230469 L 835.8125 749.75 C 834.957031 750.492188 834.199219 750.558594 833.117188 750.980469 L 825.195312 754.3125 C 819.917969 756.523438 814.027344 758.738281 808.496094 760.117188 C 797.957031 762.75 787.511719 764.515625 776.789062 766.097656 C 748.597656 770.253906 706.753906 771.285156 678.917969 768.601562 C 670.777344 767.8125 661.308594 766.585938 656.949219 765.613281 C 654.855469 765.144531 653.011719 764.789062 650.921875 764.308594 L 643.152344 762.339844 C 634.753906 760.203125 616.921875 755.691406 595.429688 747.164062 Z M 708.132812 784.304688 C 696.480469 783.960938 685.558594 782.816406 674.332031 780.945312 C 665.339844 779.449219 656.296875 777.644531 647.625 775.207031 C 639.46875 772.914062 631.566406 769.921875 623.828125 766.8125 C 615.3125 763.386719 607.21875 759.046875 599.355469 754.378906 C 594.53125 751.519531 589.949219 748.355469 585.558594 744.882812 C 584.628906 744.152344 583.835938 743.605469 582.734375 743.257812 C 571.273438 739.65625 559.945312 735.859375 549.210938 730.460938 C 539.40625 725.527344 529.265625 719.96875 522.570312 711.03125 C 517.398438 704.128906 516.234375 697.058594 519.5 689.03125 C 520.46875 686.660156 521.578125 685.476562 522.871094 683.503906 C 524.785156 680.574219 527.089844 678.816406 529.480469 676.503906 C 533.335938 672.777344 537.984375 669.835938 542.578125 667.085938 C 547.539062 664.117188 552.320312 661.914062 557.496094 659.496094 C 562.441406 657.1875 568.789062 655.222656 573.996094 653.492188 C 580.992188 651.160156 588.066406 649.449219 595.238281 647.78125 C 606.164062 645.523438 605.195312 647.757812 601.640625 641.59375 L 595.347656 629.820312 C 589.171875 617.460938 583.957031 605.179688 579.488281 591.753906 C 574.425781 576.570312 568.515625 555.828125 567.3125 538.480469 C 566.871094 532.171875 567.46875 526.113281 567.84375 519.8125 C 569.328125 512.660156 572.6875 508.871094 578.234375 504.984375 C 585.664062 499.773438 596.179688 494.304688 603.984375 489.992188 C 609.609375 487.175781 615.238281 484.875 621.027344 482.453125 C 643.277344 473.867188 662.003906 470.164062 685.699219 467.027344 C 718.21875 462.730469 760.199219 465.738281 792.292969 473.0625 C 796.710938 474.066406 801.097656 475.265625 805.40625 476.429688 L 810.542969 478.097656 C 818.855469 480.445312 832.601562 486.125 839.722656 490.265625 C 844.71875 493.171875 849.960938 495.929688 854.472656 499.597656 C 856.160156 501.0625 858.425781 502.785156 859.957031 504.324219 C 863.945312 508.316406 868.984375 516.546875 869.414062 522.148438 C 869.589844 524.472656 869.816406 525.972656 870.085938 528.484375 C 871.808594 527.332031 872.613281 526.460938 874.6875 525.230469 C 876.378906 524.226562 878.125 523.507812 880.125 522.820312 C 889.746094 519.519531 902.015625 519.433594 911.585938 523.097656 C 918.992188 525.933594 927.636719 532.109375 933.289062 540.457031 C 939.210938 549.203125 941.257812 558.433594 941.257812 569.074219 C 941.257812 582.574219 934.660156 597.808594 925.234375 607.238281 C 917.984375 614.484375 909.011719 619.890625 899.171875 624.277344 C 889.4375 628.617188 879.300781 631.976562 869.503906 636.089844 C 866.089844 637.625 860.160156 639.546875 859.097656 642.914062 C 861.632812 642.972656 870.730469 646.058594 873.386719 646.941406 C 882.644531 650.023438 892.683594 653.796875 901.046875 658.804688 C 908.914062 663.511719 915.125 667.558594 921.316406 674.65625 C 927.054688 681.242188 929.777344 690.074219 926.386719 698.46875 C 923.914062 704.589844 919.511719 708.335938 914.898438 712.632812 C 908.417969 718.664062 898.472656 723.179688 890.410156 727.140625 C 878.847656 732.550781 871.011719 734.664062 859.902344 738.507812 C 858.535156 738.980469 859.328125 738.527344 858.488281 739.449219 C 852.078125 746.464844 841.597656 753.398438 833.375 758.308594 C 828.429688 761.261719 823.628906 763.835938 818.207031 766.171875 C 804.699219 771.988281 790.8125 777.007812 776.082031 779.527344 C 751.230469 783.78125 733.050781 785.035156 708.132812 784.304688 " fill-opacity="1" fill-rule="evenodd"/><path fill="#0d0d0d" d="M 773.800781 480.042969 C 785.992188 482.726562 798.917969 485.929688 809.773438 489.84375 C 820.019531 493.535156 842.792969 503.394531 836.691406 515.75 C 834.21875 520.761719 828.597656 525.183594 824.039062 528.222656 C 822.246094 529.417969 820.464844 530.589844 818.582031 531.628906 C 820.15625 527.488281 819.238281 524.195312 814.882812 520.886719 C 806.402344 514.433594 789.578125 511.425781 778.554688 510.105469 C 767.847656 508.828125 756.566406 507.507812 745.800781 507.539062 C 723.433594 507.601562 704.125 507.230469 681.742188 509.675781 C 679.542969 509.917969 677 510.378906 674.84375 510.632812 C 670.347656 511.164062 666.136719 512.386719 661.789062 513.277344 C 654.714844 514.722656 619.945312 523.933594 619.945312 534.246094 L 615.933594 532.238281 C 614.453125 531.441406 613.398438 530.859375 612.082031 530.070312 C 601.335938 523.636719 590.023438 514.25 604.429688 503.535156 C 609.144531 500.027344 614.597656 496.902344 620.28125 494.398438 C 622.996094 493.203125 625.898438 492.226562 628.550781 491.269531 C 632.636719 489.796875 636.648438 488.363281 640.78125 487.175781 C 645.902344 485.703125 651.070312 484.132812 656.214844 482.773438 C 663.359375 480.890625 671.035156 479.230469 677.988281 478.136719 C 684.394531 477.132812 690.867188 476.46875 697.25 475.441406 C 700.492188 474.921875 704.730469 474.359375 708.125 474.019531 C 708.125 473.390625 700.582031 474.257812 699.496094 474.289062 C 687.171875 474.65625 675.109375 476.605469 663.144531 479.019531 L 651.761719 481.507812 C 645.679688 482.902344 639.777344 484.492188 633.90625 486.421875 C 632.585938 486.855469 631.648438 487.234375 630.445312 487.671875 L 623.605469 489.988281 C 617.167969 492.550781 610.847656 495.183594 604.980469 498.84375 C 599.914062 502.007812 592.621094 508.492188 593.875 515.292969 C 594.695312 519.734375 596.347656 521.175781 598.640625 524.144531 C 600.921875 527.097656 605.730469 530.355469 608.871094 532.234375 C 613.789062 535.167969 618.867188 537.796875 624.167969 539.972656 C 626.472656 540.917969 628.628906 541.605469 631.011719 542.546875 C 643.46875 547.480469 662.015625 551.585938 675.394531 553.121094 L 708.09375 555.6875 C 716.28125 556.332031 723.960938 556.335938 732.085938 556.570312 C 734.90625 556.648438 738.125 556.648438 740.914062 556.496094 C 748.449219 556.074219 754.148438 555.390625 761.609375 554.378906 C 772.519531 552.890625 781.378906 551.011719 791.464844 547.425781 L 795.382812 546.03125 C 802.617188 543.460938 807.574219 541.546875 814.4375 537.941406 C 819.484375 535.292969 824.308594 532.527344 828.210938 529.601562 C 833.238281 525.839844 838.964844 520.617188 840.304688 514.207031 C 841.871094 506.71875 836.226562 500.488281 830.429688 496.953125 C 816.613281 488.519531 797.949219 483.492188 782.097656 481.167969 C 780.582031 480.941406 779.386719 480.828125 778.007812 480.542969 C 777.136719 480.363281 774.800781 480.042969 773.800781 480.042969 Z M 692.660156 510.746094 C 696.453125 511.316406 700.136719 511.628906 703.886719 512.5625 C 707.011719 513.339844 709.738281 514.160156 712.648438 515.316406 C 721.484375 518.839844 731.769531 526.929688 718.589844 533.460938 C 712.429688 536.515625 707.597656 537.816406 700.183594 541.488281 C 688.238281 547.402344 695.617188 552.195312 697.191406 552.515625 C 699.6875 553.03125 716.25 553.621094 718.851562 553.621094 C 722.535156 553.710938 726.175781 553.902344 729.667969 553.867188 C 735.765625 553.800781 743.65625 553.402344 749.53125 552.554688 C 748.730469 551.605469 747.839844 552.050781 746.296875 552.058594 C 741.613281 552.089844 736.566406 552.066406 733.300781 548.847656 C 730.984375 546.5625 731.148438 546.074219 731.148438 543.410156 C 731.148438 534.601562 753.652344 529.304688 753.652344 520.367188 C 753.652344 514.632812 739.601562 509.832031 737.164062 509.636719 L 722.980469 509.324219 C 712.519531 509.347656 702.984375 509.59375 692.660156 510.746094 Z M 762.285156 516.441406 C 764.15625 516.441406 767.425781 517.726562 767.425781 520.140625 C 767.425781 522.847656 765.546875 523.886719 762.808594 523.25 C 762.84375 521.730469 763.257812 521.179688 762.226562 519.90625 C 761.597656 519.128906 760.699219 518.285156 759.667969 518.011719 C 759.925781 516.917969 760.453125 516.441406 762.285156 516.441406 Z M 773.015625 518.011719 C 773.292969 516.433594 778.34375 515.335938 779.066406 518.070312 C 779.382812 519.269531 777.695312 520.320312 775.199219 519.945312 C 773.058594 519.625 773 518.097656 773.015625 518.011719 Z M 659.714844 533.460938 C 656.546875 533.460938 657.535156 530.578125 661.285156 530.578125 C 662.421875 530.578125 662.859375 531.027344 663.378906 531.625 C 663.140625 532.652344 663.214844 532.699219 662.191406 533.054688 C 661.472656 533.304688 660.566406 533.460938 659.714844 533.460938 Z M 638.261719 535.03125 C 638.261719 532.019531 647.941406 531.445312 647.941406 533.984375 C 647.941406 537.476562 638.261719 538.144531 638.261719 535.03125 Z M 752.082031 546.550781 C 752.082031 545.078125 757.839844 543.652344 757.839844 546.8125 C 757.839844 548.679688 752.082031 548.726562 752.082031 546.550781 " fill-opacity="1" fill-rule="evenodd"/><path fill="#0d0d0d" d="M 838.691406 565.667969 C 839.425781 565.472656 843.960938 561.714844 844.648438 561.15625 C 847.824219 558.566406 852.335938 553.816406 854.707031 550.273438 L 858.839844 543.933594 L 853.9375 549.503906 C 852.160156 551.351562 850.636719 553.058594 848.828125 554.867188 L 841.230469 562.972656 C 840.378906 563.988281 839.398438 564.613281 838.691406 565.667969 " fill-opacity="1" fill-rule="evenodd"/><path fill="#0d0d0d" d="M 650.296875 692.140625 C 651.113281 693.359375 660.28125 699.136719 661.296875 699.722656 C 663.957031 701.269531 671.269531 704.710938 675.152344 704.710938 C 674.402344 704.058594 670.390625 702.582031 668.871094 701.832031 L 650.296875 692.140625 " fill-opacity="1" fill-rule="evenodd"/><path fill="#0d0d0d" d="M 643.230469 684.808594 C 643.78125 685.632812 644.859375 686.324219 645.738281 687.015625 C 649.421875 689.910156 648.886719 690.160156 654.269531 693.402344 C 657.601562 695.410156 664.261719 698.582031 668.089844 699.472656 C 667.617188 698.828125 662.652344 696.664062 661.757812 696.121094 L 655.515625 692.417969 C 653.402344 691.160156 651.570312 689.894531 649.398438 688.589844 C 648.382812 687.96875 644.035156 685.027344 643.230469 684.808594 " fill-opacity="1" fill-rule="evenodd"/><path fill="#0d0d0d" d="M 797.347656 687.429688 C 796.476562 687.660156 795.820312 688.476562 794.484375 689.277344 C 787.65625 693.382812 786.464844 694.300781 778.859375 697.992188 C 775.484375 699.628906 772.992188 699.8125 771.949219 700.242188 C 771.574219 700.394531 771.648438 700.378906 771.445312 700.519531 C 776.046875 700.519531 782.328125 697.804688 786.183594 695.898438 C 788.832031 694.585938 796.21875 689.117188 797.347656 687.429688 " fill-opacity="1" fill-rule="evenodd"/><path fill="#0d0d0d" d="M 601.105469 572.476562 C 600.457031 571.507812 599.527344 571.042969 598.679688 570.1875 C 597.832031 569.335938 597.183594 568.664062 596.335938 567.824219 C 595.761719 567.253906 595.628906 567.21875 595.046875 566.753906 L 582.726562 555.519531 C 582.109375 554.863281 582.054688 554.714844 581.480469 554.410156 C 583.351562 557.949219 589.910156 564.246094 592.878906 566.566406 L 599.511719 571.472656 C 600.253906 572.066406 600.214844 572.238281 601.105469 572.476562 " fill-opacity="1" fill-rule="evenodd"/><path fill="#0d0d0d" d="M 840.519531 570.902344 C 841.570312 570.625 841.898438 569.828125 842.722656 569.179688 C 843.605469 568.492188 844.195312 568.011719 845.054688 567.320312 C 848.011719 564.9375 855.570312 557.546875 856.480469 553.621094 C 855.691406 554.152344 855.164062 554.816406 854.453125 555.523438 L 842.550781 568.746094 C 841.800781 569.488281 841.082031 570.066406 840.519531 570.902344 " fill-opacity="1" fill-rule="evenodd"/><path fill="#0d0d0d" d="M 780.078125 691.621094 C 782.738281 691.398438 788.917969 688.53125 790.957031 687.320312 C 792.628906 686.328125 798.820312 682.203125 799.703125 680.882812 L 780.6875 691.179688 C 780.195312 691.507812 780.472656 691.277344 780.078125 691.621094 " fill-opacity="1" fill-rule="evenodd"/><path fill="#0d0d0d" d="M 598.488281 576.925781 C 597.839844 575.957031 586.328125 565.167969 584.6875 563.507812 C 583.796875 562.605469 583.546875 562.421875 582.527344 561.738281 C 582.851562 562.945312 585.074219 564.945312 585.890625 565.96875 C 587.109375 567.5 597.273438 576.601562 598.488281 576.925781 " fill-opacity="1" fill-rule="evenodd"/><path fill="#0d0d0d" d="M 910.644531 606.519531 C 909.324219 607.402344 909.21875 608.464844 907.132812 610.074219 C 904.671875 611.972656 902.90625 613.898438 899.28125 616.617188 C 897.960938 617.609375 896.011719 618.667969 895.207031 619.871094 C 896.503906 619.570312 898.699219 618.15625 899.816406 617.414062 C 901.867188 616.042969 906.058594 612.589844 907.507812 610.710938 C 908.351562 609.613281 910.414062 607.386719 910.644531 606.519531 " fill-opacity="1" fill-rule="evenodd"/><path fill="#0d0d0d" d="M 813.570312 660.980469 C 811.863281 661.378906 805.667969 664.765625 803.804688 665.875 C 802.738281 666.507812 801.640625 667.113281 801.011719 668.050781 C 803.054688 667.882812 808.828125 665.007812 810.875 663.257812 C 811.457031 662.761719 811.480469 662.671875 812.148438 662.175781 C 812.742188 661.738281 813.207031 661.476562 813.570312 660.980469 " fill-opacity="1" fill-rule="evenodd"/><path fill="#0d0d0d" d="M 906.722656 612.800781 C 909.808594 611.976562 918.472656 602.332031 918.757812 598.921875 C 916.175781 601.898438 912.667969 607.929688 908.519531 611.195312 C 907.894531 611.691406 907.125 612.203125 906.722656 612.800781 " fill-opacity="1" fill-rule="evenodd"/><path fill="#0d0d0d" d="M 924.511719 592.640625 L 923.636719 594.117188 C 922.394531 596.652344 919.46875 601.898438 917.648438 603.835938 C 917.105469 604.414062 916.835938 604.5625 916.402344 605.207031 C 917.570312 604.894531 918.269531 603.730469 919.085938 602.921875 C 921.367188 600.65625 924.363281 594.449219 924.511719 592.640625 " fill-opacity="1" fill-rule="evenodd"/><path fill="#0d0d0d" d="M 854.652344 622.488281 C 855.402344 621.988281 855.914062 621.707031 856.550781 620.988281 C 857.078125 620.394531 857.863281 619.542969 858.054688 618.824219 C 857.359375 619.289062 856.910156 619.835938 856.285156 620.460938 C 855.625 621.121094 854.910156 621.515625 854.652344 622.488281 " fill-opacity="1" fill-rule="evenodd"/><path fill="#0d0d0d" d="M 859.101562 619.347656 C 859.832031 618.855469 861.230469 617.300781 861.453125 616.46875 C 860.601562 617.039062 859.367188 618.347656 859.101562 619.347656 " fill-opacity="1" fill-rule="evenodd"/></svg>